# Exported from Wings 3D 1.0.1
mtllib wall.mtl
o cube1
#44 vertices, 36 faces
v -35.57775147 -3.59809806 14.23590580
v -35.57775147 45.78962508 14.23590580
v 35.57775147 45.78962508 14.23590580
v 35.57775147 -3.59809806 14.23590580
v -35.57775147 -3.59809806 -9.97204914
v -35.57775147 24.15711590 -9.97204914
v 35.57775147 24.15711590 -9.97204914
v 35.57775147 -3.59809806 -9.97204914
v -31.84000000 37.08170577 13.39943802
v -15.92000000 37.08170577 13.39943802
v -31.84000000 37.08170577 6.97390829
v -15.92000000 37.08170577 6.97390829
v 15.92000000 37.08170577 13.39943802
v 31.84000000 37.08170577 13.39943802
v 15.92000000 37.08170577 6.97390829
v 31.84000000 37.08170577 6.97390829
v -7.96000000 37.08170577 13.39943802
v 7.96000000 37.08170577 13.39943802
v -7.96000000 37.08170577 6.97390829
v 7.96000000 37.08170577 6.97390829
v -31.84000000 51.69580494 13.39943802
v -15.92000000 51.69580494 13.39943802
v -31.84000000 51.69580494 6.97390829
v -15.92000000 51.69580494 6.97390829
v 15.92000000 51.69580494 13.39943802
v 31.84000000 51.69580494 13.39943802
v 15.92000000 51.69580494 6.97390829
v 31.84000000 51.69580494 6.97390829
v -7.96000000 51.69580494 13.39943802
v 7.96000000 51.69580494 13.39943802
v -7.96000000 51.69580494 6.97390829
v 7.96000000 51.69580494 6.97390829
v -30.53409917 53.00170577 12.09353718
v -17.22590083 53.00170577 12.09353718
v -17.22590083 53.00170577 8.27980912
v -30.53409917 53.00170577 8.27980912
v -6.65409917 53.00170577 12.09353718
v 6.65409917 53.00170577 12.09353718
v 6.65409917 53.00170577 8.27980912
v -6.65409917 53.00170577 8.27980912
v 17.22590083 53.00170577 12.09353718
v 30.53409917 53.00170577 12.09353718
v 30.53409917 53.00170577 8.27980912
v 17.22590083 53.00170577 8.27980912
vt 0.0000000e+0 0.0000000e+0
vt 0.0000000e+0 0.24261070
vt 0.0000000e+0 0.24261070
vt 0.0000000e+0 0.61168227
vt 0.0000000e+0 0.79258691
vt 0.0000000e+0 1.00000000
vt 5.5511151e-17 0.79258691
vt 1.1102230e-16 0.61168227
vt 0.53174092 0.79258691
vt 0.53174092 1.00000000
vt 0.53174092 2.0816682e-16
vt 0.53174092 0.24261070
vt 0.53174092 0.61168227
vt 0.53174092 0.61168227
vt 0.53174092 0.79258691
vt 0.53174092 0.97036497
vt 0.53174092 0.97036497
vt 0.53174092 2.7755576e-17
vt 0.53174092 0.24261070
vt 0.53174092 0.36907157
vt 0.53174092 0.73814315
vt 0.53174092 0.84735346
vt 0.53174092 0.95656377
vt 0.53174092 0.99796736
vt 0.53174092 0.20741309
vt 0.53174092 0.73814315
vt 0.53174092 0.84735346
vt 0.54149984 0.98416616
vt 0.54149984 0.98416616
vt 0.54149984 0.95656377
vt 0.64095123 0.95656377
vt 0.64095123 0.98416616
vt 0.65071015 0.99796736
vt 0.65071015 0.73814315
vt 0.65071015 0.84735346
vt 0.65071015 0.97036497
vt 0.65071015 0.97036497
vt 0.65071015 0.84735346
vt 0.65071015 0.95656377
vt 0.65071015 0.73814315
vt 0.65071015 0.84735346
vt 0.65071015 0.95656377
vt 0.69872776 0.73814315
vt 0.69872776 0.84735346
vt 0.69872776 0.95656377
vt 0.69872776 0.73814315
vt 0.69872776 0.78616076
vt 0.69872776 0.78616076
vt 0.69872776 0.83417836
vt 0.69872776 0.85711238
vt 0.69872776 0.88561214
vt 0.69872776 0.90512999
vt 0.69872776 0.93362975
vt 0.71252896 0.79591968
vt 0.71252896 0.82441944
vt 0.71252896 0.89537107
vt 0.71252896 0.94338867
vt 0.71252896 0.74790207
vt 0.71252896 0.77640183
vt 0.71252896 0.84735346
vt 0.71252896 0.89537107
vt 0.71264556 0.0000000e+0
vt 0.71264556 0.48485885
vt 0.71264556 0.53287646
vt 0.71264556 0.57648467
vt 0.71264556 2.7755576e-17
vt 0.71264556 0.10921031
vt 0.71264556 0.10921031
vt 0.71264556 0.21842062
vt 0.71264556 0.21842062
vt 0.71264556 0.32763093
vt 0.71264556 0.32763093
vt 0.71264556 0.36907157
vt 0.71264556 0.36907157
vt 0.71264556 0.43684124
vt 0.71264556 0.48485885
vt 0.71264556 0.53287646
vt 0.71264556 0.58089407
vt 0.71264556 0.58089407
vt 0.71264556 0.60849646
vt 0.71264556 0.60849646
vt 0.71264556 0.94992859
vt 0.71264556 0.97842836
vt 0.71264556 0.43684124
vt 0.71264556 0.62229766
vt 0.71264556 0.73150797
vt 0.71264556 0.73150797
vt 0.71264556 0.84071828
vt 0.71264556 0.94992859
vt 0.72240448 0.59469527
vt 0.72240448 0.62229766
vt 0.76066316 0.62229766
vt 0.76066316 0.73150797
vt 0.76066316 0.73150797
vt 0.76066316 0.84071828
vt 0.76066316 0.94992859
vt 0.80868077 0.84071828
vt 0.80868077 0.94992859
vt 0.80868077 0.84071828
vt 0.80868077 0.88873589
vt 0.81209695 0.94992859
vt 0.81209695 0.95968751
vt 0.81209695 0.97842836
vt 0.81209695 0.98818728
vt 0.82185587 0.59469527
vt 0.82185587 0.59469527
vt 0.82185587 0.62229766
vt 0.82248197 0.85047720
vt 0.82248197 0.87897697
vt 0.82589814 0.94992859
vt 0.82589814 0.99794620
vt 0.83161479 0.58089407
vt 0.83161479 0.60849646
vt 0.83161479 0.60849646
vt 0.83161479 0.0000000e+0
vt 0.83161479 2.8499767e-2
vt 0.83161479 2.8499767e-2
vt 0.83161479 5.6999534e-2
vt 0.83161479 0.48485885
vt 0.83161479 0.53287646
vt 0.83161479 0.58089407
vt 0.83161479 0.10921031
vt 0.83161479 0.10921031
vt 0.83161479 0.21842062
vt 0.83161479 0.21842062
vt 0.83161479 0.32763093
vt 0.83161479 0.32763093
vt 0.83161479 0.43684124
vt 0.93106618 5.2041704e-18
vt 0.93106618 2.8499767e-2
vt 0.93106618 2.8499767e-2
vt 0.93106618 5.6999534e-2
vn -0.57735027 -0.57735027 0.57735027
vn -0.77443966 0.57746721 0.25840826
vn 0.77443966 0.57746721 0.25840826
vn 0.57735027 -0.57735027 0.57735027
vn -0.57735027 -0.57735027 -0.57735027
vn -0.48042193 0.35823051 -0.80054086
vn 0.48042193 0.35823051 -0.80054086
vn 0.57735027 -0.57735027 -0.57735027
vn -0.57735027 -0.57735027 0.57735027
vn 0.57735027 -0.57735027 0.57735027
vn -0.57735027 -0.57735027 -0.57735027
vn 0.57735027 -0.57735027 -0.57735027
vn -0.57735027 -0.57735027 0.57735027
vn 0.57735027 -0.57735027 0.57735027
vn -0.57735027 -0.57735027 -0.57735027
vn 0.57735027 -0.57735027 -0.57735027
vn -0.57735027 -0.57735027 0.57735027
vn 0.57735027 -0.57735027 0.57735027
vn -0.57735027 -0.57735027 -0.57735027
vn 0.57735027 -0.57735027 -0.57735027
vn -0.61013148 0.50544947 0.61013148
vn 0.61013148 0.50544947 0.61013148
vn -0.61013148 0.50544947 -0.61013148
vn 0.61013148 0.50544947 -0.61013148
vn -0.61013148 0.50544947 0.61013148
vn 0.61013148 0.50544947 0.61013148
vn -0.61013148 0.50544947 -0.61013148
vn 0.61013148 0.50544947 -0.61013148
vn -0.61013148 0.50544947 0.61013148
vn 0.61013148 0.50544947 0.61013148
vn -0.61013148 0.50544947 -0.61013148
vn 0.61013148 0.50544947 -0.61013148
vn -0.27059805 0.92387953 0.27059805
vn 0.27059805 0.92387953 0.27059805
vn 0.27059805 0.92387953 -0.27059805
vn -0.27059805 0.92387953 -0.27059805
vn -0.27059805 0.92387953 0.27059805
vn 0.27059805 0.92387953 0.27059805
vn 0.27059805 0.92387953 -0.27059805
vn -0.27059805 0.92387953 -0.27059805
vn -0.27059805 0.92387953 0.27059805
vn 0.27059805 0.92387953 0.27059805
vn 0.27059805 0.92387953 -0.27059805
vn -0.27059805 0.92387953 -0.27059805
g cube1_cube1_auv
usemtl cube1_auv
f 1/3/1 4/12/4 3/13/3 2/8/2
f 1/14/1 5/15/5 8/7/8 4/4/4
f 2/73/2 6/25/6 5/18/5 1/62/1
f 3/11/3 7/19/7 6/2/6 2/1/2
f 4/20/4 8/74/8 7/65/7 3/26/3
f 6/10/6 7/6/7 8/5/8 5/9/5
f 9/21/9 10/34/10 22/38/22 21/27/21
f 9/128/9 11/119/11 12/76/12 10/84/10
f 12/94/12 24/95/24 22/88/22 10/87/10
f 13/22/13 14/35/14 26/39/26 25/23/25
f 13/119/13 15/120/15 16/77/16 14/63/14
f 16/95/16 28/96/28 26/89/26 14/88/14
f 17/66/17 18/115/18 30/122/30 29/68/29
f 17/120/17 19/121/19 20/78/20 18/64/18
f 20/97/20 32/98/32 30/96/30 18/95/18
f 21/44/21 23/41/23 11/40/11 9/43/9
f 21/46/21 33/58/33 36/59/36 23/47/23
f 22/110/22 24/111/24 35/104/35 34/102/34
f 23/124/23 24/69/24 12/67/12 11/123/11
f 24/36/24 23/16/23 36/30/36 35/31/35
f 25/45/25 27/42/27 15/41/15 13/44/13
f 25/99/25 41/108/41 44/109/44 27/100/27
f 26/60/26 28/61/28 43/51/43 42/50/42
f 27/126/27 28/71/28 16/70/16 15/125/15
f 28/113/28 27/80/27 44/90/44 43/106/43
f 29/93/29 31/86/31 19/85/19 17/92/17
f 29/48/29 37/54/37 40/55/40 31/49/31
f 30/56/30 32/57/32 39/53/39 38/52/38
f 31/128/31 32/75/32 20/72/20 19/127/19
f 32/33/32 31/24/31 40/28/40 39/32/39
f 34/107/34 33/91/33 21/81/21 22/114/22
f 34/129/34 35/130/35 36/116/36 33/115/33
f 38/32/38 37/29/37 29/17/29 30/37/30
f 38/101/38 39/103/39 40/83/40 37/82/37
f 42/105/42 41/90/41 25/79/25 26/112/26
f 42/131/42 43/132/43 44/118/44 41/117/41
